<?xml version="1.0" encoding="UTF-8" standalone="no"?>
<!DOCTYPE svg PUBLIC "-//W3C//DTD SVG 1.1//EN" "http://www.w3.org/Graphics/SVG/1.1/DTD/svg11.dtd">
<svg width="100%" height="100%" viewBox="0 0 1613 555" version="1.1" xmlns="http://www.w3.org/2000/svg" xmlns:xlink="http://www.w3.org/1999/xlink" xml:space="preserve" xmlns:serif="http://www.serif.com/" style="fill-rule:evenodd;clip-rule:evenodd;stroke-linejoin:round;stroke-miterlimit:2;">
    <rect id="Artboard1" x="0" y="0" width="1612.5" height="554.763" style="fill:none;"/>
    <clipPath id="_clip1">
        <rect id="Artboard11" serif:id="Artboard1" x="0" y="0" width="1612.5" height="554.763"/>
    </clipPath>
    <g clip-path="url(#_clip1)">
        <g transform="matrix(4.16667,0,0,4.16667,0,0)">
            <path d="M43.512,29.688C43.496,29.716 43.487,29.74 43.469,29.767C43.366,29.915 43.238,29.935 43.139,30.072C42.897,30.405 42.726,30.751 42.196,30.748C42.494,30.182 43.05,29.988 43.512,29.688C43.676,29.401 43.68,29.107 44.086,28.973L44.196,28.755C44.105,29.237 43.827,29.483 43.512,29.688ZM35.164,38.659C34.862,38.563 35.164,37.981 35.202,37.785L35.311,37.821C35.587,37.96 35.566,38.786 35.164,38.659ZM32.072,42.772C31.999,42.749 31.925,42.692 31.888,42.629L31.779,42.665C31.957,42.54 32.124,42.339 32.318,42.267C32.369,42.485 32.226,42.651 32.072,42.772ZM29.74,45.767C29.666,45.662 29.61,45.536 29.52,45.439C29.434,45.475 29.345,45.509 29.266,45.542L29.448,45.359C29.482,45.378 29.496,45.414 29.52,45.439C29.656,45.383 29.79,45.323 29.888,45.269C29.927,45.457 29.878,45.666 29.74,45.767ZM29.047,42.92L28.879,43.136C28.796,43.418 28.742,43.909 28.397,43.898C28.43,43.666 28.71,43.495 28.793,43.247L28.879,43.136C28.888,43.111 28.895,43.077 28.902,43.056C28.948,42.94 28.972,42.626 29.099,42.526C29.231,42.421 29.571,42.494 29.733,42.451C29.993,42.949 29.157,43.73 29.047,42.92ZM28.539,46.525L28.539,46.415C28.626,46.729 28.764,47.13 28.713,47.466C28.3,47.41 28.283,46.784 28.539,46.525ZM25.837,54.096C25.531,54.103 25.356,53.593 24.973,53.546C25.088,53.252 25.529,53.175 25.745,52.911C26.004,52.59 25.916,52.078 25.916,51.623L25.953,52.351C25.881,52.933 25.882,53.513 25.837,54.096ZM23.768,55.228L23.768,55.155C23.806,55.444 24.031,55.69 24.017,55.987C23.73,55.906 23.763,55.487 23.768,55.228ZM22.312,56.206C22.319,56.056 22.413,55.874 22.529,55.715C22.437,55.692 22.342,55.669 22.273,55.655C22.339,55.478 22.554,55.424 22.748,55.446L22.785,55.446C22.695,55.494 22.608,55.603 22.529,55.715C22.707,55.758 22.884,55.817 22.926,55.951C22.674,55.949 22.547,56.186 22.312,56.206ZM22.184,58.532C22.089,58.692 21.165,58.78 20.964,58.758C21.063,58.548 21.13,58.378 21.172,58.197C21.125,58.189 21.06,58.193 21.036,58.168C20.91,58.045 20.992,57.879 21.166,57.827C21.162,57.82 21.154,57.82 21.145,57.813L21.182,57.813C21.174,57.815 21.174,57.821 21.166,57.827C21.174,57.841 21.176,57.859 21.213,57.856C21.223,57.99 21.197,58.093 21.172,58.197C21.32,58.227 21.52,58.216 21.615,58.223C21.8,58.237 22.353,58.245 22.184,58.532ZM20.636,56.866C20.996,56.743 21.299,56.327 21.526,55.983C21.522,55.892 21.517,55.799 21.516,55.739C21.594,55.731 21.612,55.746 21.663,55.774C21.623,55.835 21.574,55.91 21.526,55.983C21.543,56.356 21.56,56.911 21.437,57.118C21.276,57.385 21.202,57.262 20.964,57.084L20.636,56.866ZM19.11,56.87C19.127,57.1 18.855,57.231 18.666,57.087C18.479,56.948 18.663,56.656 18.458,56.568C18.451,56.545 18.462,56.481 18.452,56.466L18.633,56.466C18.881,56.766 18.96,56.541 19.07,56.32C19.148,56.165 19.076,56.12 19.252,55.99C19.379,55.894 19.639,55.894 19.791,55.883C19.891,55.874 20.693,55.867 20.678,56.065C20.67,56.179 20.386,56.227 20.305,56.274C19.914,56.5 19.622,56.889 19.11,56.87ZM19.659,63.052C19.654,62.922 19.587,62.877 19.537,62.797C19.369,62.881 19.229,62.995 19.178,63.193C19.181,62.988 19.179,62.783 19.179,62.578C19.171,62.578 19.151,62.581 19.144,62.583L19.179,62.437L19.179,62.578C19.329,62.547 19.679,62.485 19.783,62.59C19.909,62.717 19.841,63.045 19.659,63.052ZM18.998,58.104L18.998,58.031C19.476,57.596 19.831,58.421 19.656,58.794C19.375,58.685 19.544,58.033 18.998,58.104ZM18.707,62.619L18.669,62.401C18.656,62.374 18.673,62.36 18.667,62.337C18.63,62.185 18.574,62.053 18.49,61.86C18.599,61.878 18.731,61.841 18.838,61.841C18.838,61.748 18.888,61.625 18.888,61.546C19.203,61.948 18.564,61.973 18.667,62.337C18.687,62.419 18.71,62.494 18.707,62.619ZM18.238,65.091C18.243,65.062 18.241,64.989 18.236,64.959C18.178,65.139 18.045,65.196 17.881,65.278C17.977,64.975 18.152,64.711 18.197,64.404L18.197,64.44C18.231,64.447 18.265,64.436 18.3,64.445C18.243,64.718 18.398,64.855 18.336,65.091C18.345,65.1 18.237,65.091 18.238,65.091ZM17.613,64.106C17.336,63.969 17.49,63.464 17.617,63.232C17.62,63.218 17.61,63.216 17.614,63.202L17.651,63.166C17.64,63.181 17.628,63.212 17.617,63.232C17.562,63.591 18.053,63.444 18.231,63.325C18.074,63.523 17.991,64.29 17.613,64.106ZM18.27,60.654L18.27,60.835C18.307,61.257 18.087,61.75 18.115,62.11C18.163,61.618 18.156,61.142 18.27,60.654ZM22.821,51.623L22.821,51.95C22.718,52.139 22.601,52.198 22.53,52.385C22.462,52.558 22.54,52.895 22.288,52.902C21.686,52.918 22.113,52.139 21.877,51.978C22.046,51.73 22.558,51.759 22.821,51.623ZM14.919,80.535L14.264,79.989L15.247,80.28L14.919,80.535ZM13.863,69.83L13.39,69.028C13.39,69.028 13.827,69.683 14.264,67.499C14.701,65.314 15.21,66.443 15.21,66.443C15.21,66.443 14.883,65.715 13.863,69.83ZM13.536,81.263C13.244,81.045 12.771,81.263 12.771,81.263L13.317,80.389C13.317,80.389 13.827,81.482 13.536,81.263ZM12.698,70.667L12.989,71.868L12.588,71.505L12.698,70.667ZM14.518,65.605C14.518,65.605 14.701,66.042 14.374,66.115C14.045,66.188 14.009,66.625 14.009,66.625L13.972,66.042L14.518,65.605ZM11.824,78.241C11.205,78.023 11.314,77.731 11.314,77.731C11.715,77.695 12.443,78.459 11.824,78.241ZM24.673,49.292C24.86,48.896 25.218,48.98 25.339,49.301C25.409,49.481 25.584,50.173 25.481,50.352C25.222,50.799 25.153,49.943 25.043,49.797C24.874,49.893 24.819,50.13 24.714,50.275L24.678,50.457C24.678,50.154 24.547,49.561 24.673,49.292ZM30.76,38.55C31.007,38.354 31.436,38.193 31.763,38.081C31.813,38.425 31.142,38.493 30.978,38.732C30.819,38.962 30.812,39.312 30.612,39.558C30.585,39.256 30.843,38.88 30.941,38.659L30.76,38.55ZM82.721,73.362C82.721,73.362 82.394,73.799 82.103,73.362C81.812,72.925 81.411,72.925 81.266,73.871L80.719,72.233C80.719,72.233 79.298,71.832 79.809,69.21C80.319,66.589 80.537,65.897 79.955,65.205L80.502,65.496C80.502,65.496 79.809,63.384 80.319,62.256C80.829,61.127 80.974,59.852 80.574,59.706L81.266,59.451C81.266,59.451 80.283,58.104 80.355,57.158C80.428,56.211 80.682,55.009 80.682,55.009C80.682,55.009 80.974,55.446 81.047,54.863C81.047,54.863 79.226,52.715 79.918,52.278L80.464,52.278L80.21,49.802C80.21,49.802 81.484,50.093 80.865,48.163C80.246,46.233 80.392,44.922 81.266,44.704C81.266,44.704 80.246,42.446 80.136,41.755L80.464,41.317C80.464,41.317 79.772,40.771 80.355,39.206C80.938,37.639 80.901,36.584 79.809,37.567C79.809,37.567 80.464,36.073 79.517,34.471C78.571,32.869 79.846,32.287 80.392,32.578C80.392,32.578 80.574,31.777 79.664,31.923C78.752,32.068 79.408,30.94 79.408,30.94L79.664,31.34C79.664,31.34 81.739,29.483 81.739,28.536C81.739,28.536 81.52,28.609 81.338,28.937C81.338,28.937 80.792,28.063 81.52,27.153C82.249,26.242 82.467,24.967 80.974,25.477C80.974,25.477 81.411,24.167 81.411,24.057C81.411,23.948 81.157,22.674 81.301,22.273C81.447,21.872 81.629,21.909 81.629,22.018C81.629,22.127 81.812,20.999 81.776,20.671C81.739,20.343 81.338,19.651 81.157,19.979C80.974,20.307 80.829,18.341 81.084,17.904C81.338,17.466 80.974,17.212 80.938,16.993C80.901,16.774 81.01,16.519 81.01,16.519C81.01,16.519 79.736,13.606 80.755,12.805C80.755,12.805 80.901,14.153 81.52,13.024C81.52,13.024 80.537,12.15 81.301,11.093C81.301,11.093 78.752,10.985 79.081,9.2C79.081,9.2 79.955,10.475 79.481,8.946C79.481,8.946 80.027,9.164 80.136,9.091C80.136,9.091 79.445,7.963 79.736,7.343C80.027,6.724 79.7,5.449 79.7,5.449C79.7,5.449 80.283,6.215 80.502,5.304C80.502,5.304 79.709,4.585 80.505,4.143C80.505,4.143 77.713,5.302 76.798,4.963C75.882,4.623 76.124,5.975 75.449,5.878L75.401,5.443L73.138,7.803C73.138,7.803 73.573,6.408 72.272,6.888L71.55,8.188L70.971,7.851C70.971,7.851 70.347,8.62 69.671,8.524C68.998,8.428 68.854,10.115 67.65,10.837C67.65,10.837 66.494,10.837 66.494,11.173C66.494,11.51 65.435,11.412 65.435,11.412L65.242,11.943C65.242,11.943 65.964,12.619 65.531,12.762C65.097,12.905 65.821,13.39 64.472,13.292C63.123,13.195 63.125,13.006 62.883,13.581C62.642,14.157 61.631,13.531 60.475,15.266C59.32,17 57.827,17.288 57.827,17.288L58.261,16.612C58.261,16.612 54.793,18.058 54.601,18.636C54.409,19.214 54.89,19.214 54.89,19.214L52.771,21.428L53.061,22.007C53.061,22.007 50.316,24.99 48.63,25.088C48.63,25.088 48.343,25.714 47.813,26.003C47.282,26.293 46.848,26.581 46.656,26.918C46.464,27.255 46.08,26.774 46.08,26.774L44.539,28.22C44.539,28.22 42.371,28.75 40.157,32.601L39.868,32.455L39.049,34.237L38.712,33.996C38.712,33.996 38.711,34.622 38.471,34.863C38.231,35.104 37.22,36.019 36.256,36.934C36.065,37.116 35.949,37.237 35.866,37.328L35.92,37.465C35.92,37.465 35.532,37.699 35.866,37.328L35.631,36.741L34.811,36.741L34.668,37.56L34.09,37.319C34.09,37.319 33.224,38.812 33.32,39.39C33.416,39.968 33.944,39.438 33.705,40.016C33.464,40.593 33.609,40.785 33.609,40.785C33.609,40.785 32.211,41.654 31.73,41.798C31.249,41.941 31.395,42.227 31.009,42.951C30.624,43.675 30.723,43.903 30.905,44.012C31.087,44.121 30.905,43.975 30.468,44.267C30.031,44.558 29.776,44.522 29.63,44.449C29.485,44.376 31.416,41.317 30.795,41.354C30.176,41.39 29.885,41.499 29.74,41.572C29.594,41.645 30.031,40.407 30.432,40.407C30.772,40.407 31.126,40.193 31.272,39.904C31.334,39.693 31.381,39.554 31.341,39.752C31.331,39.806 31.297,39.854 31.272,39.904C31.22,40.084 31.157,40.311 31.124,40.444C31.05,40.735 31.306,40.735 31.306,40.735C31.306,40.735 32.507,39.315 32.798,37.749C32.798,37.749 32.362,37.894 32.434,37.639C32.507,37.384 32.726,36.401 32.471,36.656C32.215,36.911 32.215,37.421 31.998,37.421C31.779,37.421 31.924,37.203 31.669,37.276C31.628,37.287 31.455,37.469 31.235,37.713C30.297,38.858 29.424,40.023 28.539,41.181C28.6,41.436 28.745,41.684 28.789,41.932C28.545,41.916 28.426,41.679 28.255,41.545C27.902,42.011 27.521,42.468 27.175,42.936C27.141,43.006 27.08,43.106 27.082,43.138C27.118,43.612 26.972,44.995 27.227,45.14C27.482,45.287 27.591,45.359 27.045,45.542C26.5,45.724 26.317,45.505 26.353,45.942C26.39,46.379 26.317,46.67 26.753,46.525C27.191,46.379 27.846,45.577 27.846,45.833C27.846,46.088 27.3,46.27 27.665,46.561C28.028,46.852 27.993,46.67 28.137,47.253C28.283,47.835 28.065,48.418 27.737,48.382C27.41,48.345 27.045,48.308 26.899,48.71C26.753,49.11 26.462,49.656 26.171,49.984C25.88,50.312 26.645,50.202 26.645,50.202C26.645,50.202 26.025,50.53 25.88,50.675C25.734,50.821 25.152,51.112 25.116,51.258C25.079,51.404 24.933,52.096 24.897,52.242C24.86,52.387 24.57,52.496 24.57,52.496L24.314,52.424L24.059,52.57C24.059,52.57 24.095,53.079 24.059,53.261C24.022,53.443 23.95,53.625 23.95,53.625L23.659,53.843L23.585,53.298L23.913,52.678C23.913,52.678 23.804,52.387 23.913,52.387C24.022,52.387 24.205,52.169 24.205,52.169L24.387,52.169L24.642,51.841L24.714,51.623C24.714,51.623 24.714,51.586 24.751,51.44C24.788,51.295 24.969,50.967 25.079,50.894C25.188,50.821 25.335,50.675 25.443,50.675L25.552,50.675L25.698,50.421L25.771,50.166L26.208,49.547L26.717,48.673L27.227,48.163L27.737,47.762L27.846,47.253L27.701,46.962L27.118,47.034C27.118,47.034 26.972,47.216 26.426,46.998C25.962,46.811 24.956,46.311 25.042,45.897C24.835,46.193 24.655,46.49 24.449,46.786C24.454,46.786 24.458,46.779 24.46,46.779L24.46,46.889C24.478,47.014 24.363,47.585 24.145,47.319C24.133,47.303 24.142,47.276 24.141,47.253C21.895,50.548 19.814,53.86 17.922,57.159L18.642,57.631C18.027,58.218 18.997,59.754 18.231,60.364C17.682,60.801 16.829,59.602 16.834,60.512C16.838,61.25 17.169,60.805 16.726,61.363C16.537,61.602 16.415,61.746 16.325,62.023C16.212,62.369 16.091,62.801 15.998,63.161C15.851,63.715 15.97,63.718 15.333,63.742C15.219,64.145 15.32,64.447 15.012,64.722C14.646,65.052 13.968,64.907 13.627,65.28C13.585,65.323 13.565,65.68 13.534,65.749C13.331,66.188 12.975,66.489 13.172,66.998C13.24,67.172 13.448,67.221 13.522,67.408C13.612,67.633 13.609,68.034 13.408,68.182C13.742,68.789 12.947,68.671 12.585,68.751C12.589,69.021 12.728,69.554 12.684,69.784C12.612,70.151 11.79,70.455 12.175,70.867C11.729,71.311 11.729,71.757 11.768,72.317C11.161,72.659 9.964,73.405 10.419,74.238C9.878,74.556 9.862,74.714 9.886,75.191C9.887,75.205 9.94,75.439 9.949,75.469C10.017,75.724 10.394,76.266 10.382,76.48C10.368,76.753 9.9,77.096 9.761,77.333C9.551,77.69 9.504,78.077 9.378,78.441C9.305,78.657 9.184,78.869 9.125,79.096C9.191,79.096 9.264,79.112 9.331,79.109C9.128,79.379 8.773,79.502 8.48,79.682C8.715,79.75 9.042,79.654 9.324,79.505C9.375,79.178 9.404,78.867 9.442,78.689C10.244,78.71 9.869,79.215 9.324,79.505C9.231,80.112 9.065,80.781 8.613,80.779C8.563,81.091 8.179,80.915 8.083,81.099C8.259,81.086 8.444,81.213 8.587,81.361C8.314,81.674 7.9,81.8 7.544,81.996C7.7,82.056 7.915,82.081 8.099,82.064C7.528,82.863 8.877,82.829 9.398,82.404C9.401,82.142 9.431,81.885 9.469,81.749C9.691,82.015 9.603,82.235 9.398,82.404C9.394,82.8 9.469,83.205 9.791,83.225C9.775,83.271 9.759,83.346 9.743,83.391C10.761,83.539 10.093,81.91 9.948,81.527C10.647,81.345 10.88,82.929 11.049,83.391C11.217,83.405 12.075,83.421 11.814,83.294C12.193,83.291 12.571,83.173 12.943,83.1C12.947,83.141 12.947,83.189 12.952,83.239C13.211,83.173 13.436,82.993 13.665,82.845C13.914,83.412 14.66,83.307 15.187,83.442C15.182,83.453 15.174,83.462 15.169,83.473L15.379,83.473L15.21,83.412C15.21,83.412 14.082,82.719 14.665,81.773L13.972,81.955C13.972,81.955 14.446,81.045 15.793,81.445C17.141,81.846 16.922,81.008 16.922,81.008L18.998,81.737C18.998,81.737 19.581,81.227 19.179,80.972C18.779,80.717 20.053,81.081 19.69,80.608C19.325,80.134 21.802,81.737 25.771,81.373C29.74,81.008 36.403,81.482 36.732,81.664C37.059,81.846 37.131,81.373 36.804,81.081C36.476,80.79 37.387,81.627 37.787,80.899C38.187,80.171 38.443,80.426 38.662,80.754C38.879,81.081 39.972,82.647 39.936,80.863C39.899,79.078 44.124,82.247 47.692,81.045C47.692,81.045 48.128,80.899 48.202,81.81C48.275,82.719 48.602,82.064 48.602,82.064C48.602,82.064 48.128,81.518 48.565,81.518C49.003,81.518 51.005,81.227 50.896,80.826C50.787,80.426 51.625,81.701 52.716,81.482C53.809,81.263 53.773,82.611 53.773,82.611C53.773,82.611 54.683,83.011 54.465,81.883C54.465,81.883 57.706,81.955 57.888,81.263C57.888,81.263 58.58,81.773 59.344,81.518C60.109,81.263 64.259,81.263 65.207,82.174C66.153,83.084 63.969,80.608 66.153,81.373L65.498,80.644C65.498,80.644 66.918,80.608 67.392,80.717C67.865,80.826 67.719,81.008 68.011,81.154C68.302,81.3 68.667,81.664 69.322,81.263C69.977,80.863 70.123,80.244 70.669,80.317C71.215,80.389 71.397,80.426 70.998,80.608C70.596,80.79 69.832,80.754 70.086,81.154C70.34,81.554 70.415,81.701 70.669,81.627C70.923,81.554 72.343,79.734 72.453,80.863C72.453,80.863 71.252,81.045 71.943,81.482C72.635,81.919 73.473,81.664 73.473,81.664L73.073,80.79C73.073,80.79 79.554,81.154 80.319,76.529C80.319,76.529 80.865,76.858 81.047,75.765C81.229,74.673 81.812,74.126 81.957,74.308C81.957,74.308 81.739,75.546 82.394,74.527C82.71,74.035 82.793,73.753 82.798,73.587L82.798,73.539C82.788,73.403 82.721,73.362 82.721,73.362Z" style="fill:rgb(161,188,117);fill-rule:nonzero;"/>
            <path d="M34.218,22.746L34.109,22.637C34.285,22.803 34.602,22.951 34.616,23.219C34.395,23.213 33.944,22.955 34.218,22.746ZM32.13,27.587C32.024,27.432 32.071,27.173 32.071,26.97L32.252,26.825C32.311,26.815 32.375,26.822 32.43,26.829C32.377,27.073 32.215,27.337 32.13,27.587ZM30.505,29.347C30.253,29.772 29.965,29.804 29.625,29.934C29.55,29.988 29.506,30.065 29.413,30.102L29.338,30.065C29.44,30.006 29.533,29.969 29.625,29.934C29.925,29.719 30.119,29.417 30.293,29.073C30.46,28.743 30.585,28.193 30.873,27.953C31.014,28.067 31.137,28.527 31.192,28.714C30.768,28.725 30.685,29.046 30.505,29.347ZM30.034,30.935C30.007,30.723 30.223,30.639 30.395,30.575L30.468,30.138C30.569,30.163 30.669,30.237 30.757,30.293C30.635,30.571 30.414,30.98 30.034,30.935ZM29.194,2.901L29.413,2.937C29.502,2.93 29.614,2.965 29.704,2.981C29.638,3.251 29.533,3.604 29.3,3.781C29.147,3.617 29.18,3.135 29.194,2.901ZM28.211,3.884C28.247,3.829 28.306,3.768 28.356,3.738L28.502,3.847C28.662,3.9 28.762,4.03 28.757,4.2C28.612,4.032 28.414,3.959 28.211,3.884ZM26.945,31.69C26.844,31.581 26.793,31.429 26.662,31.376C26.543,31.556 26.438,31.761 26.372,31.861C26.29,31.984 25.993,32.565 25.813,32.562C25.46,32.56 25.842,31.717 25.843,31.522L26.608,31.34C26.634,31.342 26.641,31.367 26.662,31.376C26.758,31.226 26.863,31.094 26.965,31.06C27.346,30.937 27.167,31.554 26.945,31.69ZM26.5,32.506C26.537,32.851 26.362,33.432 26.151,33.682C26.422,33.19 26.502,32.66 26.5,32.105L26.5,32.506ZM25.409,36.581C25.203,36.786 24.602,36.561 24.344,36.502C24.711,36.401 25.168,36.29 25.552,36.219L25.443,35.783C25.684,35.787 25.942,35.953 25.874,36.221C25.387,36.064 25.607,36.386 25.409,36.581ZM23.739,34.41C23.497,34.396 23.252,34.39 23.058,34.283C23.199,34.119 23.494,34.073 23.659,33.962L23.84,34.108C23.802,34.192 23.757,34.303 23.739,34.41C23.977,34.422 24.213,34.442 24.396,34.571C24.319,34.704 24.029,34.838 23.867,34.749C23.728,34.674 23.713,34.544 23.739,34.41ZM23.657,35.45C23.707,35.715 23.356,36.078 23.337,36.356C23.37,36.215 23.503,35.633 23.657,35.45C23.656,35.441 23.663,35.427 23.659,35.418L23.804,35.418C23.755,35.368 23.705,35.391 23.657,35.45ZM22.458,39.278L22.384,39.206C22.377,38.93 22.417,38.345 22.713,38.254C22.967,38.406 23.044,38.427 23.033,38.762C23.031,38.834 22.86,38.853 22.891,38.989C22.908,39.059 23.088,39.175 23.148,39.235C22.917,39.254 22.691,39.285 22.458,39.278ZM22.048,35.776C22.165,35.609 22.676,35.636 22.86,35.598C22.813,35.797 22.696,35.969 22.659,36.158C22.789,36.186 22.905,36.208 22.956,36.221C22.851,36.278 22.752,36.231 22.653,36.176C22.65,36.19 22.64,36.203 22.639,36.219L22.553,36.135C22.25,36.067 21.918,35.962 22.048,35.776ZM25.003,34.474L25.006,34.435C25.004,34.446 25.008,34.463 25.007,34.476C25.366,34.606 25.672,34.897 25.508,35.284C25.121,35.307 24.991,34.801 25.007,34.476C25.006,34.476 25.004,34.476 25.003,34.474L24.969,35.091C25.032,34.758 24.792,34.57 24.532,34.401C24.677,34.381 24.843,34.417 25.003,34.474ZM26.687,29.961C26.735,29.954 26.779,29.961 26.827,29.956L26.645,30.575C26.477,30.311 26.575,30.227 26.687,29.961ZM21.219,35.636L21.294,35.464C21.284,35.382 21.285,35.329 21.328,35.382L21.294,35.464C21.304,35.544 21.326,35.653 21.328,35.702C21.339,35.944 21.323,36.165 21.403,36.397C21.384,36.133 21.22,35.905 21.219,35.636ZM20.053,37.494C19.727,37.739 19.644,38.208 19.624,38.43L19.726,36.693C19.726,36.693 19.909,37.021 20.09,36.948C20.272,36.875 20.345,36.984 20.49,37.021C20.636,37.057 20.49,37.166 20.053,37.494ZM18.122,44.497C18.224,44.601 18.268,44.722 18.161,44.813L18.131,44.826C18.179,45.102 18.256,45.407 17.941,45.473C17.583,45.549 16.941,44.519 17.869,44.959L18.131,44.826C18.108,44.702 18.093,44.581 18.122,44.497ZM17.936,41.758C17.941,41.95 17.832,42.098 17.869,42.301L17.832,42.41C17.724,42.205 17.555,41.693 17.585,41.472C17.641,41.629 17.763,41.761 17.936,41.758ZM18.707,46.452L18.707,46.488C18.596,46.367 18.625,46.172 18.536,46.008C18.909,46.022 18.862,46.215 18.707,46.452ZM17.13,48.199C17.013,48.534 16.895,48.679 16.487,48.632C16.586,48.352 16.845,48.208 17.104,48.09L17.175,47.938C17.163,48.029 17.156,48.127 17.13,48.199ZM16.886,43.138L16.886,43.102C16.84,42.938 16.781,42.779 16.772,42.608C16.876,42.82 17.09,42.988 17.175,43.17C17.078,43.184 16.978,43.172 16.886,43.138ZM15.245,45.239C15.231,45.05 15.244,44.799 15.356,44.668L15.32,44.85C15.298,44.893 15.256,44.915 15.294,44.99C15.347,44.995 15.418,45.009 15.463,45.009C15.429,45.112 15.363,45.194 15.245,45.239ZM13.36,48.732C13.272,48.523 13.312,48.308 13.248,48.095C13.35,48.158 13.409,48.311 13.572,48.345L13.718,48.454C13.68,48.637 13.566,48.805 13.36,48.732ZM77.23,0.632L76.34,0.643C76.339,0.655 76.343,0.659 76.342,0.67C75.868,0.666 75.414,0.684 74.95,0.78C74.501,0.868 74.093,0.761 73.637,0.866C73.174,0.975 73.312,1.007 72.881,0.898C72.616,0.834 72.65,0.793 72.42,0.816C72.165,0.841 71.931,1.123 71.612,1.112C71.496,1.11 71.408,1.03 71.308,1.021C70.966,0.989 70.64,1.007 70.293,1.014C70.327,1.797 68.192,1.458 67.39,1.303C67.255,1.514 66.989,1.642 66.735,1.586C66.744,1.38 66.819,1.194 66.88,1C66.569,1.118 66.072,1.212 65.819,0.998C65.666,1.073 65.529,1.189 65.396,1.315C65.452,1.292 65.5,1.271 65.562,1.244C65.599,1.831 64.602,2.653 64.108,2.917C64.539,2.475 64.914,1.772 65.396,1.315C64.937,1.517 64.657,1.59 64.215,1.303C63.753,1.005 63.59,0.798 62.944,0.821C62.412,0.839 61.896,1.089 61.384,1.194C61.44,1.089 61.41,0.952 61.446,0.852C60.877,0.661 60.323,1.103 59.838,1.351C59.671,0.948 58.351,1.289 57.931,0.823C58.035,0.807 58.139,0.761 58.243,0.752C58.011,0.675 57.379,0.697 56.822,0.668L56.66,0.668C56.491,0.925 56.348,1.214 56.249,1.483C56.041,1.044 54.696,1.296 53.922,1.69C53.933,1.706 53.969,1.704 53.973,1.724C54.032,2.004 53.6,2.159 53.413,2.088C53.488,1.954 53.679,1.815 53.922,1.69C53.739,1.401 52.645,1.685 52.478,1.831C52.627,1.634 52.908,1.383 53.099,1.153C53.017,0.959 53.175,0.818 53.328,0.668L52.328,0.668C52.003,0.852 51.701,1.107 51.503,1.342C51.495,1.467 51.453,1.579 51.309,1.631C51.344,1.545 51.417,1.445 51.503,1.342C51.509,1.251 51.505,1.155 51.483,1.057C50.999,1.03 49.746,0.757 49.355,1.112C49.318,1.071 49.333,1.064 49.305,1.016C48.964,0.993 48.272,0.971 48.186,1.392C48.46,1.376 48.727,1.262 48.918,1.062C48.882,1.248 48.8,1.421 48.681,1.569C48.661,1.554 48.661,1.51 48.637,1.489C48.623,1.763 48.669,2.176 48.435,2.364C48.074,2.653 46.968,2.218 46.537,2.168C46.584,1.876 47.287,1.2 47.072,0.966C46.962,0.843 46.073,1.034 45.855,1.007C45.132,0.925 44.37,0.734 43.619,0.766C42.984,0.793 42.575,1.118 41.921,1.103C41.312,1.089 40.698,0.952 40.086,0.916C40.103,1.235 40.302,1.599 40.354,1.875C39.851,1.565 39.05,1.253 38.428,1.248C38.036,1.248 38.006,1.349 37.637,1.399C37.019,1.486 36.113,0.734 35.573,1.235C35.604,1.217 35.618,1.189 35.614,1.155C35.143,1.373 35.263,1.48 34.654,1.494C35.238,1.146 33.473,0.645 33.217,0.675C32.857,0.714 32.605,0.862 32.195,0.862C31.637,0.864 31.115,1.151 30.573,1.098C30.567,1.057 30.562,1.018 30.56,0.977C30.117,0.88 29.564,1.26 29.224,1.096C29.208,0.968 29.219,0.814 29.212,0.668L28.297,0.668C29.096,1.148 28.539,2.354 28.539,2.354L29.011,2.245C29.011,2.245 28.793,2.864 28.028,2.755C27.263,2.646 27.155,3.156 27.155,3.156L25.552,2.245C25.552,2.245 25.515,2.464 25.479,2.682C25.443,2.901 26.098,3.083 26.098,3.083C26.098,3.083 25.843,3.265 25.335,3.229C24.824,3.192 25.26,3.738 25.26,3.738C23.077,2.354 18.524,2.135 17.651,2.864C16.777,3.593 13.9,2.464 13.681,2.464C13.462,2.464 13.609,3.047 13.609,3.047C12.954,2.318 12.588,3.556 12.588,3.556L11.606,2.391C11.059,2.755 11.533,3.301 11.533,3.301C11.533,3.301 9.494,3.374 8.546,3.156C7.6,2.937 6.873,3.447 6.873,3.447C6.108,1.808 6.071,2.573 6.071,2.573C6.071,2.573 6.726,3.047 6.035,3.41C5.342,3.775 5.669,4.212 5.669,4.212C4.905,3.702 4.687,4.212 4.214,4.212C3.74,4.212 3.122,3.52 3.122,3.52C2.539,4.284 3.485,4.393 3.485,4.393C2.648,5.85 3.012,6.178 3.012,6.178C3.012,6.178 2.32,6.724 2.32,7.744C2.32,8.763 1.41,9.928 1.41,9.928C2.065,9.674 2.137,10.548 2.137,10.548L2.83,10.147C2.83,10.147 2.867,11.458 2.684,11.676C2.502,11.895 2.21,11.968 2.065,12.186C1.919,12.405 2.867,13.424 2.867,13.424L3.122,13.206L3.084,14.044C3.084,14.044 2.757,13.752 2.465,13.424C2.174,13.096 1.957,13.825 1.957,13.825C3.267,14.262 2.612,14.918 2.612,14.918C2.539,14.044 1.847,14.553 1.847,14.553L1.81,15.609L2.757,15.354C2.757,15.354 2.903,18.267 2.539,18.85C2.174,19.432 2.21,23.839 2.21,23.839C1.373,23.693 1.591,25.04 1.591,25.404C1.591,25.768 0.827,25.623 0.827,25.623L0.936,25.332C0.573,24.931 -0.046,26.46 0.135,26.169C0.317,25.878 0.827,26.388 1.191,26.46C1.555,26.534 1.519,25.841 1.519,25.841L2.028,27.08C3.231,27.371 3.194,27.953 2.939,29.155C2.684,30.357 2.612,31.813 2.612,31.813C2.612,31.813 1.264,31.267 2.102,31.74C2.939,32.214 2.684,33.707 2.32,34.216C1.957,34.726 2.102,35.564 2.102,35.564L1.482,35.819C2.903,36.948 2.102,38.769 2.102,38.769C2.102,38.769 0.463,38.368 1.665,38.878C2.867,39.387 2.539,40.662 2.539,40.662L2.247,40.662L2.393,42.301C1.264,42.118 2.137,43.975 2.393,44.886C2.648,45.797 0.717,45.614 1.519,45.76C2.32,45.905 2.393,47.253 2.393,47.435C2.393,47.617 3.048,48.017 2.939,48.09C2.83,48.163 1.665,47.762 2.32,48.017C2.975,48.273 2.539,49.219 2.465,49.51C2.393,49.802 1.993,50.275 2.137,50.712C2.284,51.15 3.048,50.712 3.048,50.712C3.048,50.712 2.539,51.15 3.048,52.278C3.558,53.407 3.594,53.48 3.485,53.807C3.375,54.135 2.429,53.953 2.429,53.953C2.429,53.953 2.174,54.39 3.122,54.426C4.068,54.463 3.45,55.191 3.45,55.191L3.233,54.852C3.2,54.934 2.984,55.134 2.102,55.628C0.609,56.466 1.009,57.011 1.155,56.793C1.3,56.575 1.482,56.429 1.482,56.429C1.957,57.231 0.791,58.177 0.754,58.578C0.717,58.978 1.738,58.796 1.738,58.796C1.738,58.796 1.373,59.561 1.519,59.852C1.665,60.143 1.555,60.544 1.482,60.908C1.443,61.108 1.341,61.12 1.279,61.097C1.379,61.168 1.349,61.398 1.119,61.891C0.863,62.437 1.555,62.547 1.555,62.547L1.738,62.219C2.102,62.547 1.447,64.039 1.665,64.185C1.883,64.331 1.701,64.841 1.701,64.841C2.502,64.586 2.137,67.608 1.993,67.208C1.847,66.807 1.228,67.172 1.228,67.172C2.247,67.936 1.591,68.518 1.591,68.518C1.591,68.518 2.21,68.773 2.247,68.445C2.274,68.202 2.779,67.763 2.965,67.579C2.909,67.738 3.048,68.082 3.048,68.082C3.048,67.645 4.651,65.642 4.651,65.642C4.651,65.642 4.105,66.115 4.068,65.35C4.032,64.586 4.76,63.275 4.76,63.275C4.76,63.275 4.032,62.765 4.105,62.874C4.177,62.984 4.795,61.6 5.197,60.507C5.597,59.415 6.873,59.998 6.471,59.67C6.071,59.342 7.163,57.923 7.309,57.923C7.455,57.923 7.891,58.068 8.183,57.704C8.474,57.34 8.583,56.502 8.583,56.502C8.583,56.502 8.401,55.846 8.437,55.737C8.474,55.628 9.348,55.046 9.348,55.046L8.948,55.665C8.948,55.665 8.328,56.211 8.875,56.356C9.081,56.411 9.397,55.924 9.709,55.298C10.224,54.269 10.732,52.861 10.732,52.861L11.023,52.861C11.023,52.861 11.242,51.914 11.606,50.821C11.97,49.729 12.698,49.547 12.698,49.547L13.026,48.928L13.063,49.328C13.063,49.328 13.5,49.401 13.791,49.401C14.082,49.401 14.045,49.474 14.191,49.474C14.336,49.474 14.119,49.183 14.119,49.183C14.119,49.183 14.045,48.746 14.264,48.819C14.482,48.892 14.482,49.147 14.482,49.147C14.482,49.147 14.627,49.073 14.627,48.928C14.627,48.782 14.591,48.491 14.737,48.273C14.883,48.054 14.956,47.289 14.956,47.143C14.956,46.998 14.701,47.18 14.701,47.18C14.701,47.18 14.082,47.617 13.936,47.617C13.791,47.617 14.045,47.362 14.045,47.362C14.045,47.362 14.299,47.289 14.191,47.253C14.082,47.216 14.155,46.962 14.155,46.962L14.336,46.852C14.518,46.743 14.482,46.561 14.482,46.561L14.155,46.306C14.155,46.306 14.591,46.342 14.737,46.306C14.883,46.27 15.101,46.16 15.21,46.051C15.32,45.942 15.465,45.833 15.612,45.76C15.756,45.687 16.048,45.687 16.048,45.687C16.048,45.687 15.793,45.542 15.793,45.396C15.793,45.25 15.866,45.14 16.048,44.995C16.23,44.85 16.486,44.303 16.486,44.303L16.158,43.975L16.63,44.012L16.813,43.72C16.813,43.72 17.542,43.684 17.141,43.939C16.74,44.194 16.849,46.197 16.849,46.197C16.849,46.197 17.141,45.651 17.614,46.088C18.087,46.525 16.886,47.653 16.886,47.289C16.886,46.925 16.377,47.653 16.486,47.216C16.594,46.779 17.032,46.816 17.032,46.816L16.339,46.597C15.356,47.69 15.756,48.819 15.756,48.819C15.756,48.819 16.084,48.527 16.048,49.11C16.011,49.693 16.377,49.62 16.377,49.62C16.34,49.299 16.278,49.053 16.859,49.285C17.806,47.856 18.761,46.479 19.719,45.13C19.62,44.97 19.46,44.658 19.434,44.23C19.398,43.612 19.289,43.357 18.998,43.466C18.998,43.466 19.107,43.175 19.581,43.393C20.053,43.612 20.053,42.956 19.944,42.701C19.835,42.446 19.762,42.373 19.471,42.556C19.179,42.737 18.961,42.81 18.743,42.81C18.524,42.81 18.597,42.373 18.489,42.118C18.379,41.864 18.342,42.009 18.197,41.827C18.05,41.645 17.869,41.354 18.087,41.099C18.306,40.844 19.216,40.735 19.216,40.735L19.835,39.278L20.527,38.987L20.615,38.792L20.891,38.186C20.891,38.186 20.818,37.931 21.001,38.04L21.182,38.149L21.474,37.749L21.55,37.614L21.51,37.13L21.765,37.239L21.55,37.614L21.584,38.004L21.437,38.295L21.145,38.368L20.381,39.242L20.09,39.461C20.09,39.461 20.163,39.752 20.272,39.752C20.381,39.752 20.49,40.007 20.49,40.007L20.709,40.152L20.891,39.97C20.891,39.97 21.001,40.152 21.001,40.261C21.001,40.371 20.927,40.735 20.927,40.735C20.927,40.735 20.672,40.771 20.527,40.698C20.381,40.626 19.981,40.334 19.981,40.225C19.981,40.116 19.909,39.752 19.909,39.752C19.909,39.752 19.762,39.934 19.69,40.189C19.617,40.444 19.216,40.917 19.216,40.917C19.216,40.917 18.888,40.953 18.816,41.062C18.743,41.172 18.524,41.681 18.524,41.681L19.107,41.973C19.107,41.973 19.909,42.264 20.017,42.264C20.127,42.264 20.527,42.774 20.527,42.774C20.527,42.774 20.948,43.065 21.038,43.309C21.219,43.063 21.401,42.831 21.582,42.588C21.554,42.585 21.546,42.603 21.512,42.591C21.233,42.508 21.25,42.062 21.474,42.154L21.51,42.118C21.621,42.144 21.705,42.261 21.743,42.376C33.208,27.027 45.335,17.175 55.916,10.892C56,10.516 56.142,9.813 56.02,9.851C56.536,9.687 57.01,9.506 57.492,9.258C57.82,9.089 58.165,8.821 58.531,8.745C58.276,8.923 58.173,9.205 58.096,9.496C58.203,9.514 58.296,9.499 58.385,9.469C58.475,9.419 58.569,9.366 58.661,9.314C58.821,9.189 58.965,9.025 59.124,8.907C59.303,8.773 59.553,8.688 59.717,8.543C59.753,8.51 59.864,8.281 59.877,8.277C59.985,8.222 60.213,8.258 60.33,8.197C60.508,8.101 60.496,7.853 60.756,7.846C60.798,7.671 61.012,7.156 61.201,7.095C61.495,7 61.722,7.48 62.115,7.505C62.275,7.425 62.44,7.339 62.6,7.259C62.664,7.175 62.722,7.086 62.802,6.993C63.209,6.512 63.38,6.752 63.98,6.481C64.449,6.269 64.959,6.057 65.294,5.718C65.651,5.359 66.141,5.339 66.637,5.181C67.231,4.995 67.774,4.812 68.347,4.667C68.913,4.434 69.465,4.216 70.009,4.007C69.961,3.905 69.771,3.709 69.794,3.533C69.852,3.115 69.95,3.331 70.271,3.242C70.584,3.154 70.791,3.006 71.053,2.855C71.357,2.682 71.747,2.696 72.004,2.523C72.203,2.388 72.334,2.127 72.466,1.945C72.518,2.245 72.806,2.596 72.575,2.855C72.852,2.887 73.045,2.717 73.284,2.651C73.32,2.364 73.345,2.045 73.499,1.786C73.589,2.009 73.626,2.268 73.88,2.405C74.293,2.626 74.252,2.38 74.526,2.145C74.957,1.779 75.54,1.79 75.896,1.344C75.857,1.342 75.823,1.358 75.786,1.358C76.017,1.274 76.172,1.085 76.411,0.934C76.654,0.782 76.937,0.693 77.23,0.632Z" style="fill:rgb(75,130,186);fill-rule:nonzero;"/>
            <path d="M22.653,36.176C22.654,36.169 22.657,36.165 22.659,36.158C22.636,36.155 22.615,36.149 22.594,36.145C22.615,36.155 22.633,36.165 22.653,36.176Z" style="fill:rgb(75,130,186);fill-rule:nonzero;"/>
            <path d="M81.399,0.572L78.65,0.611C78.627,0.873 78.468,1.116 78.246,1.323C79.418,1.014 80.479,0.766 81.399,0.572Z" style="fill:rgb(75,130,186);fill-rule:nonzero;"/>
            <path d="M70.971,3.645C71.231,3.547 71.493,3.449 71.747,3.358C71.502,3.101 71.25,2.871 71.19,2.899C71.016,2.978 70.996,3.417 70.971,3.645Z" style="fill:rgb(75,130,186);fill-rule:nonzero;"/>
            <path d="M60.98,8.079C61.252,7.937 61.521,7.805 61.791,7.669C61.557,7.584 61.314,7.514 61.165,7.621C61.106,7.662 61.021,7.983 60.98,8.079Z" style="fill:rgb(75,130,186);fill-rule:nonzero;"/>
            <path d="M59.272,14.59C59.272,14.59 60.619,12.441 60.509,11.786C60.505,11.761 60.518,11.742 60.515,11.72C59.785,12.177 59.064,12.641 58.35,13.112L58.034,15.609L58.835,14.626L59.272,14.59Z" style="fill:rgb(161,188,117);fill-rule:nonzero;"/>
            <path d="M72.235,6.36L72.709,5.159L72.843,5.015C72.468,5.19 72.093,5.366 71.721,5.545C72.188,5.875 72.235,6.36 72.235,6.36Z" style="fill:rgb(161,188,117);fill-rule:nonzero;"/>
            <path d="M82.358,11.458L81.884,11.385C81.884,11.385 81.776,11.786 81.884,11.859C81.994,11.931 82.103,12.259 82.139,12.514C82.175,12.769 82.212,13.242 82.212,13.242C82.212,13.242 82.629,12.669 82.798,12.575L82.798,11.076L82.467,11.166L82.358,11.458Z" style="fill:rgb(161,188,117);fill-rule:nonzero;"/>
            <path d="M80.283,2.135L82.759,3.574L82.742,0.905C80.374,1.76 78.085,2.689 75.843,3.661L80.283,2.135Z" style="fill:rgb(161,188,117);fill-rule:nonzero;"/>
            <path d="M46.053,23.293C46.122,23.67 46.414,22.598 46.448,22.077C46.155,22.33 45.873,22.587 45.583,22.841C45.759,22.908 46.006,23.035 46.053,23.293Z" style="fill:rgb(161,188,117);fill-rule:nonzero;"/>
            <path d="M26.353,44.157C26.331,44.149 26.335,44.108 26.329,44.076C25.943,44.611 25.57,45.147 25.192,45.683C25.81,45.246 26.643,44.267 26.353,44.157Z" style="fill:rgb(161,188,117);fill-rule:nonzero;"/>
            <path d="M39.225,28.868C39.326,28.839 39.428,28.816 39.529,28.832C39.546,29.134 39.582,29.376 39.383,29.587C38.951,30.05 38.832,29.583 39.098,29.228L38.976,29.123C38.31,29.811 37.623,30.487 36.974,31.181C37.017,31.188 37.059,31.178 37.104,31.195C37,31.267 36.94,31.358 36.842,31.447C36.773,31.513 36.655,31.581 36.543,31.654C36.439,31.765 36.336,31.879 36.232,31.993C36.186,32.253 36.723,32.168 36.974,32.182C36.848,32.398 36.644,32.503 36.415,32.578C35.871,32.756 35.531,32.869 35.128,33.343L35.098,33.236C34.841,33.525 34.569,33.807 34.314,34.096C34.536,33.905 34.683,33.812 34.729,33.853C35.092,34.18 35.566,35.091 35.966,35.054C36.367,35.018 37.714,34.399 37.787,33.088C37.86,31.777 38.879,30.43 38.989,30.612C39.098,30.794 39.353,31.558 39.972,30.32C40.527,29.212 40.787,27.705 40.783,27.269C40.247,27.794 39.747,28.336 39.225,28.868Z" style="fill:rgb(161,188,117);fill-rule:nonzero;"/>
            <path d="M52.353,17.357C52.353,17.357 52.433,17.281 52.513,17.205C52.084,17.528 51.668,17.857 51.244,18.183C51.448,18.186 51.622,18.231 51.629,18.486C51.503,18.656 51.14,18.602 50.835,18.5C50.516,18.745 50.189,18.989 49.875,19.239C50.063,19.36 50.43,19.532 50.933,19.432C51.661,19.287 53.191,18.996 53.226,18.814C53.263,18.632 52.353,17.357 52.353,17.357Z" style="fill:rgb(161,188,117);fill-rule:nonzero;"/>
            <path d="M4.279,71.982C4.505,71.493 4.729,70.992 4.957,70.51L3.704,68.664L3.594,69.939L3.231,69.902L3.375,70.157L3.158,70.157C3.158,70.157 3.839,71.313 4.279,71.982Z" style="fill:rgb(75,130,186);fill-rule:nonzero;"/>
            <path d="M7.964,64.222L7.6,64.295L7.09,64.586L7.309,65.205L6.763,64.841L5.56,65.278L7.038,66.274C7.378,65.598 7.715,64.911 8.06,64.251L7.964,64.222Z" style="fill:rgb(75,130,186);fill-rule:nonzero;"/>
            <path d="M3.267,73.653L0,71.024L0,72.351C0.223,72.57 0.153,72.993 0,73.448L0,74.909C0.17,74.964 0.334,75.039 0.508,75.07C0.335,75.703 0.102,77.32 0.721,77.665C0.669,77.813 0.641,77.909 0.624,78.045C1.165,77.731 1.947,77.374 2.048,76.575C2.171,75.596 1.624,75.33 2.571,74.393C2.699,74.661 2.782,74.886 2.845,75.096C3.103,74.511 3.372,73.96 3.633,73.384C3.432,73.544 3.267,73.653 3.267,73.653Z" style="fill:rgb(75,130,186);fill-rule:nonzero;"/>
            <path d="M0.936,68.3L0.609,67.208L0,67.561L0,68.197L0.208,68.118L0.936,68.3Z" style="fill:rgb(75,130,186);fill-rule:nonzero;"/>
            <path d="M9.203,60.435L9.494,61.491L9.529,61.518C9.633,61.325 9.739,61.127 9.842,60.933L9.203,60.435Z" style="fill:rgb(75,130,186);fill-rule:nonzero;"/>
            <path d="M20.455,43.684C20.395,43.812 20.381,44.009 20.377,44.223C20.558,43.971 20.741,43.716 20.923,43.468C20.787,43.443 20.589,43.391 20.455,43.684Z" style="fill:rgb(75,130,186);fill-rule:nonzero;"/>
            <path d="M12.302,56.026C12.367,55.746 12.547,55.476 12.552,55.155L12.552,55.228C13.045,55.376 12.543,55.912 12.302,56.026ZM13.426,53.079C13.536,52.06 14.919,52.06 14.919,51.768C14.919,51.477 12.116,49.875 12.662,51.623C13.208,53.37 12.443,54.354 12.443,54.354C11.095,53.625 11.97,56.975 11.97,56.975L12.043,57.049C12.96,55.473 13.887,53.939 14.822,52.451C14.171,52.299 13.33,53.98 13.426,53.079Z" style="fill:rgb(75,130,186);fill-rule:nonzero;"/>
            <path d="M256.643,40.775C256.643,26.544 246.274,14.973 233.506,14.973C220.873,14.973 210.503,26.544 210.503,40.775C210.503,54.733 220.873,66.039 233.506,66.039C246.274,66.039 256.643,54.733 256.643,40.775ZM267.948,40.775C267.948,60.454 253.058,76.41 233.506,76.41C214.094,76.41 199.064,60.454 199.064,40.775C199.064,20.824 214.094,4.599 233.506,4.599C253.058,4.599 267.948,20.824 267.948,40.775Z" style="fill:rgb(75,130,186);fill-rule:nonzero;"/>
            <path d="M315.29,33.46C312.498,22.285 303.184,14.841 293.211,14.841C283.771,14.841 273.8,21.755 270.872,33.46L315.29,33.46ZM326.189,53.538C321.405,68.165 309.701,76.41 293.88,76.41C274.2,76.41 258.769,60.718 258.769,40.64C258.769,20.824 274.2,4.599 293.211,4.599C310.898,4.599 327.923,19.229 327.792,43.565L270.205,43.565C271.67,57.791 282.574,66.169 293.88,66.169C303.585,66.169 310.499,61.517 314.223,53.538L326.189,53.538Z" style="fill:rgb(75,130,186);fill-rule:nonzero;"/>
            <path d="M375.525,40.775C375.525,26.544 365.153,14.973 352.384,14.973C339.752,14.973 329.377,26.544 329.377,40.775C329.377,54.733 339.752,66.039 352.384,66.039C365.153,66.039 375.525,54.733 375.525,40.775ZM386.828,40.775C386.828,60.454 371.935,76.41 352.384,76.41C332.97,76.41 317.943,60.454 317.943,40.775C317.943,20.824 332.97,4.599 352.384,4.599C371.935,4.599 386.828,20.824 386.828,40.775Z" style="fill:rgb(75,130,186);fill-rule:nonzero;"/>
            <path d="M131.912,76.41C113.032,76.41 97.603,60.454 97.603,40.64C97.603,20.824 113.032,4.599 131.912,4.599C147.208,4.599 159.177,13.644 163.829,27.472L151.729,27.472C147.873,20.028 140.824,15.371 131.912,15.371C119.282,15.371 108.909,26.81 108.909,40.64C108.909,54.466 119.282,65.638 131.912,65.638C140.956,65.638 148.004,60.985 151.729,53.538L163.829,53.538C159.309,67.368 147.208,76.41 131.912,76.41Z" style="fill:rgb(161,188,117);fill-rule:nonzero;"/>
            <path d="M187.497,74.815L175.395,74.815L150.528,6.329L162.495,6.329L181.515,60.852L200.396,6.329L212.364,6.329L187.497,74.815Z" style="fill:rgb(161,188,117);fill-rule:nonzero;"/>
            <path d="M15.67,98.062C15.235,96.738 14.301,95.807 12.826,95.807C10.829,95.807 9.613,97.674 9.613,101.34C9.569,105.008 10.654,106.877 12.913,106.877C14.258,106.877 15.084,106.399 15.972,104.553L18.752,105.291C17.818,108.003 15.777,109.396 12.913,109.396C8.917,109.396 6.617,106.463 6.617,101.34C6.617,96.217 8.917,93.288 12.913,93.288C15.907,93.288 17.644,94.631 18.383,97.412L15.67,98.062Z" style="fill:rgb(161,188,117);fill-rule:nonzero;"/>
            <path d="M23.455,109.178L23.455,93.505L26.452,93.505L26.452,99.757L32.488,99.757L32.488,93.505L35.484,93.505L35.484,109.178L32.488,109.178L32.488,102.449L26.452,102.449L26.452,109.178L23.455,109.178Z" style="fill:rgb(161,188,117);fill-rule:nonzero;"/>
            <path d="M45.653,103.315L49.3,103.315L47.541,96.497L47.496,96.497L45.653,103.315ZM45.608,93.481L49.343,93.481L53.793,109.178L50.817,109.178L49.949,105.79L45.001,105.79L44.067,109.178L41.091,109.178L45.608,93.481Z" style="fill:rgb(161,188,117);fill-rule:nonzero;"/>
            <path d="M59.286,109.178L59.286,93.505L63.495,93.505L66.511,104.444L66.555,104.444L69.593,93.505L73.848,93.505L73.848,109.178L71.245,109.178L71.245,96.847L71.199,96.847L67.683,109.178L65.405,109.178L61.932,96.847L61.887,96.847L61.887,109.178L59.286,109.178Z" style="fill:rgb(161,188,117);fill-rule:nonzero;"/>
            <path d="M84.58,100.407L86.966,100.407C89.224,100.407 89.855,99.558 89.855,98.17C89.855,96.779 89.224,95.937 86.966,95.937L84.58,95.937L84.58,100.407ZM81.582,109.178L81.582,93.505L87.314,93.505C90.702,93.505 92.849,94.913 92.849,98.17C92.849,101.426 90.702,102.839 87.314,102.839L84.58,102.839L84.58,109.178L81.582,109.178Z" style="fill:rgb(161,188,117);fill-rule:nonzero;"/>
            <path d="M99.667,109.178L99.667,93.505L102.663,93.505L102.663,106.658L109.479,106.658L109.479,109.178L99.667,109.178Z" style="fill:rgb(161,188,117);fill-rule:nonzero;"/>
            <path d="M118.388,103.315L122.034,103.315L120.275,96.497L120.232,96.497L118.388,103.315ZM118.345,93.481L122.078,93.481L126.527,109.178L123.555,109.178L122.686,105.79L117.736,105.79L116.802,109.178L113.829,109.178L118.345,93.481Z" style="fill:rgb(161,188,117);fill-rule:nonzero;"/>
            <rect x="132.367" y="93.505" width="2.995" height="15.673" style="fill:rgb(161,188,117);fill-rule:nonzero;"/>
            <path d="M142.697,109.178L142.697,93.505L145.822,93.505L151.989,104.184L152.03,104.184L152.03,93.505L154.853,93.505L154.853,109.178L151.967,109.178L145.563,98.019L145.52,98.019L145.52,109.178L142.697,109.178Z" style="fill:rgb(161,188,117);fill-rule:nonzero;"/>
            <path d="M173.651,93.505L176.605,93.505L179.382,105.051L179.428,105.051L182.336,93.505L185.285,93.505L181.142,109.178L177.798,109.178L173.651,93.505Z" style="fill:rgb(161,188,117);fill-rule:nonzero;"/>
            <path d="M193.049,103.315L196.697,103.315L194.936,96.497L194.895,96.497L193.049,103.315ZM193.005,93.481L196.738,93.481L201.188,109.178L198.212,109.178L197.346,105.79L192.396,105.79L191.462,109.178L188.49,109.178L193.005,93.481Z" style="fill:rgb(161,188,117);fill-rule:nonzero;"/>
            <path d="M207.77,109.178L207.77,93.505L210.764,93.505L210.764,106.658L217.581,106.658L217.581,109.178L207.77,109.178Z" style="fill:rgb(161,188,117);fill-rule:nonzero;"/>
            <path d="M223.34,109.178L223.34,93.505L226.338,93.505L226.338,106.658L233.156,106.658L233.156,109.178L223.34,109.178Z" style="fill:rgb(161,188,117);fill-rule:nonzero;"/>
            <path d="M240.146,109.178L240.146,93.505L250.526,93.505L250.526,96.021L243.14,96.021L243.14,99.757L248.506,99.757L248.506,102.273L243.14,102.273L243.14,106.658L250.763,106.658L250.763,109.178L240.146,109.178Z" style="fill:rgb(161,188,117);fill-rule:nonzero;"/>
            <path d="M262.174,99.711L264.863,93.505L267.989,93.505L263.671,102.923L263.671,109.178L260.676,109.178L260.676,102.923L256.353,93.505L259.479,93.505L262.174,99.711Z" style="fill:rgb(161,188,117);fill-rule:nonzero;"/>
            <path d="M291.21,95.807C288.755,95.807 287.63,97.674 287.63,101.34C287.586,105.008 288.735,106.877 291.21,106.877C293.667,106.877 294.794,105.008 294.794,101.34C294.794,97.674 293.667,95.807 291.21,95.807ZM291.21,109.396C286.936,109.396 284.632,106.463 284.632,101.34C284.632,96.217 286.936,93.288 291.21,93.288C295.49,93.288 297.788,96.217 297.788,101.34C297.788,106.463 295.49,109.396 291.21,109.396Z" style="fill:rgb(161,188,117);fill-rule:nonzero;"/>
            <path d="M304.756,109.178L304.756,93.505L314.744,93.505L314.744,96.021L307.749,96.021L307.749,99.757L312.983,99.757L312.983,102.273L307.749,102.273L307.749,109.178L304.756,109.178Z" style="fill:rgb(161,188,117);fill-rule:nonzero;"/>
            <path d="M321.433,109.178L321.433,93.505L331.418,93.505L331.418,96.021L324.428,96.021L324.428,99.757L329.663,99.757L329.663,102.273L324.428,102.273L324.428,109.178L321.433,109.178Z" style="fill:rgb(161,188,117);fill-rule:nonzero;"/>
            <rect x="338.463" y="93.505" width="2.998" height="15.673" style="fill:rgb(161,188,117);fill-rule:nonzero;"/>
            <path d="M358.938,98.062C358.504,96.738 357.569,95.807 356.095,95.807C354.097,95.807 352.882,97.674 352.882,101.34C352.841,105.008 353.924,106.877 356.18,106.877C357.528,106.877 358.351,106.399 359.243,104.553L362.021,105.291C361.087,108.003 359.047,109.396 356.18,109.396C352.188,109.396 349.886,106.463 349.886,101.34C349.886,96.217 352.188,93.288 356.18,93.288C359.176,93.288 360.915,94.631 361.652,97.412L358.938,98.062Z" style="fill:rgb(161,188,117);fill-rule:nonzero;"/>
            <path d="M368.874,109.178L368.874,93.505L379.248,93.505L379.248,96.021L371.87,96.021L371.87,99.757L377.233,99.757L377.233,102.273L371.87,102.273L371.87,106.658L379.49,106.658L379.49,109.178L368.874,109.178Z" style="fill:rgb(161,188,117);fill-rule:nonzero;"/>
            <path d="M11.666,123.996C10.029,123.996 8.999,125.243 8.457,127.69C7.887,130.138 8.375,131.386 10.027,131.386C11.664,131.386 12.694,130.138 13.237,127.69C13.779,125.243 13.301,123.996 11.666,123.996ZM9.654,133.065C6.8,133.065 5.701,131.109 6.458,127.69C7.217,124.274 9.186,122.319 12.04,122.319C14.89,122.319 15.994,124.274 15.233,127.69C14.477,131.109 12.509,133.065 9.654,133.065Z" style="fill:rgb(161,188,117);fill-rule:nonzero;"/>
            <path d="M17.503,132.919L19.823,122.464L26.486,122.464L26.112,124.141L21.451,124.141L20.895,126.631L24.387,126.631L24.014,128.313L20.524,128.313L19.502,132.919L17.503,132.919Z" style="fill:rgb(161,188,117);fill-rule:nonzero;"/>
            <path d="M39.501,133.143L39.501,117.468L49.877,117.468L49.877,119.989L42.498,119.989L42.498,123.721L47.859,123.721L47.859,126.238L42.498,126.238L42.498,130.626L50.118,130.626L50.118,133.143L39.501,133.143Z" style="fill:rgb(161,188,117);fill-rule:nonzero;"/>
            <path d="M66.296,122.025C65.862,120.706 64.928,119.766 63.453,119.766C61.454,119.766 60.24,121.638 60.24,125.307C60.195,128.973 61.281,130.841 63.538,130.841C64.886,130.841 65.709,130.365 66.6,128.521L69.378,129.255C68.445,131.97 66.404,133.361 63.538,133.361C59.544,133.361 57.244,130.429 57.244,125.307C57.244,120.184 59.544,117.252 63.538,117.252C66.535,117.252 68.271,118.598 69.011,121.376L66.296,122.025Z" style="fill:rgb(161,188,117);fill-rule:nonzero;"/>
            <path d="M81.635,119.766C79.182,119.766 78.054,121.638 78.054,125.307C78.01,128.973 79.162,130.841 81.635,130.841C84.088,130.841 85.217,128.973 85.217,125.307C85.217,121.638 84.088,119.766 81.635,119.766ZM81.635,133.361C77.36,133.361 75.056,130.429 75.056,125.307C75.056,120.184 77.36,117.252 81.635,117.252C85.913,117.252 88.213,120.184 88.213,125.307C88.213,130.429 85.913,133.361 81.635,133.361Z" style="fill:rgb(161,188,117);fill-rule:nonzero;"/>
            <path d="M94.095,133.143L94.095,117.468L97.223,117.468L103.388,128.149L103.432,128.149L103.432,117.468L106.253,117.468L106.253,133.143L103.367,133.143L96.961,121.984L96.918,121.984L96.918,133.143L94.095,133.143Z" style="fill:rgb(161,188,117);fill-rule:nonzero;"/>
            <path d="M119.789,119.766C117.337,119.766 116.207,121.638 116.207,125.307C116.164,128.973 117.316,130.841 119.789,130.841C122.244,130.841 123.373,128.973 123.373,125.307C123.373,121.638 122.244,119.766 119.789,119.766ZM119.789,133.361C115.513,133.361 113.211,130.429 113.211,125.307C113.211,120.184 115.513,117.252 119.789,117.252C124.064,117.252 126.368,120.184 126.368,125.307C126.368,130.429 124.064,133.361 119.789,133.361Z" style="fill:rgb(161,188,117);fill-rule:nonzero;"/>
            <path d="M133.35,133.143L133.35,117.468L137.561,117.468L140.578,128.412L140.624,128.412L143.662,117.468L147.915,117.468L147.915,133.143L145.313,133.143L145.313,120.812L145.267,120.812L141.752,133.143L139.473,133.143L136,120.812L135.956,120.812L135.956,133.143L133.35,133.143Z" style="fill:rgb(161,188,117);fill-rule:nonzero;"/>
            <rect x="157.434" y="117.468" width="2.995" height="15.675" style="fill:rgb(161,188,117);fill-rule:nonzero;"/>
            <path d="M176.808,122.025C176.374,120.706 175.44,119.766 173.963,119.766C171.967,119.766 170.752,121.638 170.752,125.307C170.706,128.973 171.792,130.841 174.05,130.841C175.396,130.841 176.219,130.365 177.111,128.521L179.89,129.255C178.959,131.97 176.915,133.361 174.05,133.361C170.056,133.361 167.757,130.429 167.757,125.307C167.757,120.184 170.056,117.252 174.05,117.252C177.047,117.252 178.781,118.598 179.521,121.376L176.808,122.025Z" style="fill:rgb(161,188,117);fill-rule:nonzero;"/>
            <path d="M203.644,119.766C201.188,119.766 200.062,121.638 200.062,125.307C200.018,128.973 201.172,130.841 203.644,130.841C206.096,130.841 207.226,128.973 207.226,125.307C207.226,121.638 206.096,119.766 203.644,119.766ZM203.644,133.361C199.365,133.361 197.065,130.429 197.065,125.307C197.065,120.184 199.365,117.252 203.644,117.252C207.919,117.252 210.219,120.184 210.219,125.307C210.219,130.429 207.919,133.361 203.644,133.361Z" style="fill:rgb(161,188,117);fill-rule:nonzero;"/>
            <path d="M219.916,124.373L222.305,124.373C224.558,124.373 225.191,123.525 225.191,122.136C225.191,120.747 224.558,119.902 222.305,119.902L219.916,119.902L219.916,124.373ZM216.914,133.143L216.914,117.468L222.651,117.468C226.038,117.468 228.186,118.879 228.186,122.136C228.186,125.394 226.038,126.803 222.651,126.803L219.916,126.803L219.916,133.143L216.914,133.143Z" style="fill:rgb(161,188,117);fill-rule:nonzero;"/>
            <path d="M236.63,124.373L239.017,124.373C241.271,124.373 241.905,123.525 241.905,122.136C241.905,120.747 241.271,119.902 239.017,119.902L236.63,119.902L236.63,124.373ZM233.634,133.143L233.634,117.468L239.365,117.468C242.752,117.468 244.9,118.879 244.9,122.136C244.9,125.394 242.752,126.803 239.365,126.803L236.63,126.803L236.63,133.143L233.634,133.143Z" style="fill:rgb(161,188,117);fill-rule:nonzero;"/>
            <path d="M256.1,119.766C253.646,119.766 252.52,121.638 252.52,125.307C252.473,128.973 253.625,130.841 256.1,130.841C258.553,130.841 259.685,128.973 259.685,125.307C259.685,121.638 258.553,119.766 256.1,119.766ZM256.1,133.361C251.823,133.361 249.521,130.429 249.521,125.307C249.521,120.184 251.823,117.252 256.1,117.252C260.375,117.252 262.68,120.184 262.68,125.307C262.68,130.429 260.375,133.361 256.1,133.361Z" style="fill:rgb(161,188,117);fill-rule:nonzero;"/>
            <path d="M271.546,124.328L273.759,124.328C276.101,124.328 276.821,123.595 276.821,122.115C276.821,120.639 275.929,119.902 274.281,119.902L271.546,119.902L271.546,124.328ZM268.549,133.143L268.549,117.468L274.801,117.468C278.359,117.468 279.793,119.529 279.816,122.115C279.84,124.045 278.858,125.61 276.951,126.154L280.4,133.143L277.08,133.143L274.127,126.761L271.546,126.761L271.546,133.143L268.549,133.143Z" style="fill:rgb(161,188,117);fill-rule:nonzero;"/>
            <path d="M296.034,117.446L296.034,119.963L291.934,119.963L291.934,133.143L288.933,133.143L288.933,119.963L284.831,119.963L284.831,117.446L296.034,117.446Z" style="fill:rgb(161,188,117);fill-rule:nonzero;"/>
            <path d="M310.826,117.468L313.822,117.468L313.822,127.28C313.822,131.864 311.001,133.361 307.81,133.361C304.619,133.361 301.797,131.864 301.797,127.28L301.797,117.468L304.792,117.468L304.792,127.409C304.792,129.951 305.789,130.841 307.81,130.841C309.824,130.841 310.826,129.951 310.826,127.409L310.826,117.468Z" style="fill:rgb(161,188,117);fill-rule:nonzero;"/>
            <path d="M320.854,133.143L320.854,117.468L323.982,117.468L330.146,128.149L330.189,128.149L330.189,117.468L333.012,117.468L333.012,133.143L330.125,133.143L323.72,121.984L323.677,121.984L323.677,133.143L320.854,133.143Z" style="fill:rgb(161,188,117);fill-rule:nonzero;"/>
            <rect x="342.525" y="117.468" width="2.995" height="15.675" style="fill:rgb(161,188,117);fill-rule:nonzero;"/>
            <path d="M362.73,117.446L362.73,119.963L358.635,119.963L358.635,133.143L355.634,133.143L355.634,119.963L351.532,119.963L351.532,117.446L362.73,117.446Z" style="fill:rgb(161,188,117);fill-rule:nonzero;"/>
            <path d="M373.807,123.677L376.498,117.468L379.625,117.468L375.307,126.891L375.307,133.143L372.307,133.143L372.307,126.891L367.987,117.468L371.112,117.468L373.807,123.677Z" style="fill:rgb(161,188,117);fill-rule:nonzero;"/>
        </g>
    </g>
</svg>
