<?xml version="1.0" encoding="UTF-8" standalone="no"?>
<!DOCTYPE svg PUBLIC "-//W3C//DTD SVG 1.1//EN" "http://www.w3.org/Graphics/SVG/1.1/DTD/svg11.dtd">
<svg width="100%" height="100%" viewBox="0 0 257 37" version="1.1" xmlns="http://www.w3.org/2000/svg" xmlns:xlink="http://www.w3.org/1999/xlink" xml:space="preserve" xmlns:serif="http://www.serif.com/" style="fill-rule:evenodd;clip-rule:evenodd;stroke-linejoin:round;stroke-miterlimit:2;">
    <path d="M28.003,2.071c-0.19,0.139 -0.381,0.279 -0.572,0.419c-0.133,-0.181 -0.266,-0.363 -0.399,-0.543c0.242,-0.059 0.483,-0.145 0.729,-0.16c0.074,-0.005 0.161,0.184 0.242,0.284Zm10.872,29.914c-0,0.083 -0.001,0.166 -0.001,0.25l-2.354,0c0.015,-0.084 0.03,-0.167 0.045,-0.25l2.31,0Zm-22.637,-22.46c-1.503,0.073 -3.005,0.146 -5.259,0.256c1.992,-2.275 3.536,-2.309 5.222,-1.48c0.012,0.409 0.024,0.816 0.037,1.224Zm152.264,-2.38c-0.99,0.167 -1.98,0.333 -2.97,0.499c-0.046,-0.212 -0.092,-0.424 -0.138,-0.636c0.979,-0.221 1.959,-0.444 2.938,-0.666c0.057,0.268 0.114,0.535 0.17,0.803Zm62.704,4.202c-0.543,0.102 -1.097,0.147 -1.648,0.204c-0.026,-0.247 -0.052,-0.494 -0.078,-0.741c0.562,-0.06 1.127,-0.122 1.69,-0.183c0.014,0.25 0.068,0.714 0.036,0.72Zm3.155,17.799c-1.223,0.269 -2.447,0.536 -3.669,0.805c-0.018,-0.369 -0.034,-0.74 -0.052,-1.11c1.195,-0.114 2.393,-0.228 3.588,-0.341c0.045,0.215 0.09,0.43 0.133,0.646Zm-11.766,1.456c-1.168,0.197 -2.336,0.395 -3.504,0.592c-0.026,-0.195 -0.054,-0.391 -0.08,-0.586c1.175,-0.127 2.351,-0.253 3.525,-0.38c0.02,0.124 0.041,0.249 0.059,0.374Zm-47.677,-29.412c4.716,-0.811 -86.079,0.393 -85.383,2.102c-0.641,0.245 -1.026,0.512 -1.42,0.526c-8.711,0.308 -17.451,2.158 -26.111,-0.492c-0.937,-0.287 -1.952,-0.378 -2.937,-0.429c-5.516,-0.284 -11.033,-0.544 -16.552,-0.77c-0.907,-0.038 -1.822,0.132 -2.87,0.217c1.915,3.674 1.836,4.003 -1.814,4.512c-3.203,0.447 -6.463,0.486 -9.675,0.884c-1.764,0.218 -3.981,0.282 -5.102,1.35c-1.623,1.547 -3.275,1.995 -5.283,2.185c-5.21,0.494 -10.416,1.033 -15.616,1.626c-0.72,0.081 -1.393,0.566 -2.155,0.893c3.088,4.308 3.088,4.308 9.773,5.274c5.075,0.732 5.416,1.115 5.323,6.37c4.041,1.299 8.169,2.7 12.354,3.91c0.848,0.245 1.91,-0.198 2.862,-0.379c2.809,-0.532 5.542,-0.759 8.31,0.458c1.234,0.543 2.773,0.712 4.133,0.591c4.754,-0.422 9.523,0.773 14.268,-0.211c0.474,-0.098 1.099,0.227 1.576,0.494c4.149,2.33 8.915,2.604 13.382,3.336c6.229,1.022 12.676,0.734 19.031,0.949c1.097,0.038 2.351,0.082 3.269,-0.389c1.324,-0.68 2.156,-0.841 3.321,0.344c0.545,0.552 1.851,0.453 2.817,0.48c10.898,0.309 21.796,0.665 32.697,0.847c12.029,0.2 24.06,0.355 36.089,0.296c8.917,-0.045 17.841,-0.309 26.747,-0.767c7.348,-0.379 14.672,-1.205 22.01,-1.796c4.449,-0.358 8.928,-0.471 13.352,-1.03c2.77,-0.351 6.156,-0.556 8.011,-2.223c2.25,-2.023 4.744,-2.865 7.251,-4.059c1.763,-0.84 3.418,-1.939 5.03,-3.055c1.246,-0.862 2.294,-2.008 3.53,-2.888c1.144,-0.814 2.072,-1.685 1.277,-3.124c-0.761,-1.377 -1.913,-1.203 -3.299,-0.696c-5.208,1.906 -8.819,-0.072 -10.115,-5.6c-2.026,-0.479 -4.91,-0.398 -5.377,-1.422c-1.232,-2.698 -3.685,-2.436 -5.826,-3.208c0.961,-2.831 3.315,-2.75 5.27,-3.248c1.943,-0.493 4.227,-0.155 5.67,-2.392c-0.589,-0.315 -0.934,-0.663 -1.273,-0.656c-3.539,0.071 -7.122,-0.12 -10.606,0.374c-9.25,1.307 -18.453,2.935 -27.684,4.384c-1.226,0.194 -3.174,0.609 -3.627,0.023c-1.424,-1.84 -3.141,-1.036 -4.656,-0.956c-2.533,0.134 -5.047,0.684 -7.566,1.067c-2.246,0.341 -2.877,0.292 -4.895,-0.412c2.223,-0.442 4.451,-0.887 7.575,-1.508c-3.761,-1.442 -5.895,-1.262 -9.513,-0.707c-6.265,0.959 -12.58,1.578 -18.874,2.34c-0.043,-0.287 -0.087,-0.573 -0.131,-0.86c4.476,-0.859 8.941,-1.784 13.432,-2.555Z" style="fill:#a1bc75;"/>
</svg>
