<?xml version="1.0" encoding="UTF-8" standalone="no"?>
<!DOCTYPE svg PUBLIC "-//W3C//DTD SVG 1.1//EN" "http://www.w3.org/Graphics/SVG/1.1/DTD/svg11.dtd">
<svg width="100%" height="100%" viewBox="0 0 241 51" version="1.1" xmlns="http://www.w3.org/2000/svg" xmlns:xlink="http://www.w3.org/1999/xlink" xml:space="preserve" xmlns:serif="http://www.serif.com/" style="fill-rule:evenodd;clip-rule:evenodd;stroke-linejoin:round;stroke-miterlimit:2;">
    <path d="M187.154,24.329c0.338,-0.199 0.545,-0.32 0.75,-0.441c-0.265,-0.236 -0.504,-0.526 -0.812,-0.676c-0.104,-0.051 -0.381,0.255 -0.578,0.398c0.219,0.246 0.439,0.493 0.64,0.719Zm-1.568,6.035c1.723,1.853 2.651,1.865 4.936,-0l-4.936,-0Zm-14.943,15.503c-0.09,-0.359 -0.18,-0.718 -0.272,-1.077c-1.56,0.167 -3.248,-0.254 -4.441,1.835c1.57,-0.252 3.142,-0.505 4.713,-0.758Zm22.752,-9.913c0.029,-0.328 0.06,-0.656 0.091,-0.983c-2.453,-0.226 -4.906,-0.453 -7.359,-0.68c-0.029,0.309 -0.059,0.616 -0.087,0.924c2.47,0.051 4.765,1.963 7.355,0.739Zm5.691,-7.16c-2.922,-0.31 -2.922,-0.31 -5.115,2.178c4.187,1.166 4.218,1.154 5.115,-2.178Zm19.693,11.642c0.268,-2.06 0.493,-3.806 0.795,-6.141c-0.711,-0.123 -1.697,-0.456 -2.672,-0.429c-1.968,0.054 -4.16,0.94 -5.848,0.337c-3.4,-1.214 -5.341,-0.259 -6.455,2.865c-5.108,-1.504 -5.108,-1.504 -6.896,1.646c1.967,-0 3.824,-0.282 5.547,0.082c1.624,0.344 3.105,1.369 4.959,2.24c-0.422,-1.69 -0.694,-2.779 -1.207,-4.823c2.768,0.919 5.106,2.56 6.44,1.962c3.017,-1.351 3.496,1.645 5.337,2.261Zm-218.779,-33.231c0.117,-1.361 0.121,-2.361 0.301,-3.329c0.495,-2.655 1.425,-3.187 4.142,-2.908c1.641,0.168 3.32,0.061 4.976,-0.031c3.943,-0.22 7.893,-0.815 11.823,-0.696c7.355,0.221 14.702,0.781 22.044,1.32c3.794,0.279 7.572,1.199 11.35,1.157c7.757,-0.086 15.506,-0.789 23.264,-0.905c3.634,-0.054 7.291,0.576 10.915,1.066c2.094,0.285 4.129,0.973 6.212,1.364c2.663,0.501 40.665,4.109 39.327,4.656c0.509,1.559 0.984,2.599 3.037,2.735c2.327,0.155 4.574,1.281 6.9,1.784c1.323,0.287 2.736,0.266 4.104,0.221c3.476,-0.115 6.936,-1.262 10.429,0.222c0.961,0.408 2.233,0.104 3.362,0.089c9.459,-0.129 18.91,-0.011 28.351,-1.122c6.877,-0.81 13.837,-1.086 20.768,-1.219c4.365,-0.083 8.768,0.348 13.103,0.935c1.713,0.232 3.428,1.312 4.879,2.367c1.348,0.978 1.676,2.621 0.928,4.213c-0.852,1.814 -2.34,3.044 -4.369,2.671c-1.62,-0.297 -3.258,-1.015 -4.651,-1.916c-1.955,-1.264 -3.838,-1.855 -5.937,-0.627c-1.329,0.777 -2.384,0.288 -3.557,-0.348c-1.237,-0.673 -2.529,-1.35 -3.883,-1.678c-0.824,-0.201 -1.997,-0.018 -2.687,0.462c-2.879,2.003 -6.01,3.31 -9.336,1.885c-2.898,-1.243 -4.589,1.495 -7.348,1.134c1.838,1.82 2.64,4.389 5.583,3.875c0.658,-0.115 1.432,0.074 1.984,-0.208c4.298,-2.195 8.886,-1.646 13.471,-1.847c3.751,-0.165 7.152,0.796 10.672,1.542c0.546,0.116 1.343,0.427 1.63,0.182c3.119,-2.641 6.063,0.296 9.088,0.296c3.205,-0 6.411,0.852 9.615,1.347c0.102,0.017 0.179,0.205 0.475,0.565c-0.438,0.675 -0.928,1.433 -1.335,2.061c-1.603,-0.414 -2.987,-0.788 -4.391,-1.064c-0.047,-0.009 -0.288,0.963 -0.52,1.761c-0.928,-0.563 -1.816,-1.144 -2.74,-1.655c-1.879,-1.035 -3.458,-1.513 -5.028,0.845c-1.292,1.942 -5.298,1.865 -7.635,0.308c-0.464,-0.309 -0.886,-0.68 -1.271,-0.979c-2.023,0.637 -3.91,1.232 -6.287,1.98c3.775,2.478 7.272,1.561 10.644,0.957c4.186,-0.75 8.159,-0.54 11.895,1.613c0.567,0.326 0.988,0.904 1.983,1.844c-2.95,0.744 -5.288,1.263 -7.794,0.445c-2.744,-0.895 -5.009,0.002 -7.498,1.921c1.655,1.294 4.463,0.67 4.266,3.483c-0.02,0.262 1.611,1.089 2.156,0.868c3.804,-1.542 7.099,1.279 10.728,1.271c-4.007,0.318 -8.011,0.689 -12.025,0.929c-1.927,0.115 -3.978,-0.582 -5.589,1.093c-3.3,-1.8 -6.083,0.865 -9.15,1.042c-1.061,0.061 -1.167,-0.637 -0.122,-2.607c-1.05,-0 -1.917,-0.035 -2.78,0.007c-1.363,0.066 -2.429,-0.034 -3.821,-0.868c-2.059,-1.235 -4.806,-1.738 -7.272,-1.778c-3.187,-0.05 -6.387,0.664 -9.96,1.095c0.325,0.847 0.751,1.526 0.833,2.244c0.4,3.521 -0.359,4.595 -4.029,5.523c-3.84,0.972 -7.65,1.436 -11.723,1.169c-5.76,-0.378 -11.627,-0.087 -17.374,0.568c-8.784,1.001 -17.471,-0.181 -26.198,-0.414c-10.177,-0.272 -20.357,-0.455 -30.531,-0.796c-4.383,-0.147 -8.779,-0.402 -13.127,-0.943c-11.932,-1.485 -23.854,-3.104 -35.441,-6.469c-8.28,-2.405 -16.589,-4.745 -24.743,-7.528c-3.678,-1.255 -7.015,-3.512 -10.497,-5.334c-0.75,-0.392 -1.405,-1.084 -2.192,-1.272c-4.898,-1.169 -6.037,-4.585 -6.407,-9.151c-0.356,-4.387 -2.23,-8.425 -5.99,-11.423Z" style="fill:#4b82ba;"/>
</svg>
